<svg preserveAspectRatio="none" overflow="visible" style="display: block;" width="36" height="36" viewBox="0 0 36 36" fill="none" xmlns="http://www.w3.org/2000/svg">
<g id="material-symbols-light:home-rounded">
<path id="Vector" d="M7.5 28.5V15.462C7.5 15.078 7.586 14.7145 7.758 14.3715C7.93 14.0285 8.167 13.746 8.469 13.524L16.5465 7.407C16.9695 7.084 17.4525 6.9225 17.9955 6.9225C18.5385 6.9225 19.0245 7.084 19.4535 7.407L27.531 13.5225C27.834 13.7445 28.071 14.0275 28.242 14.3715C28.414 14.7145 28.5 15.078 28.5 15.462V28.5C28.5 28.902 28.3505 29.2525 28.0515 29.5515C27.7525 29.8505 27.402 30 27 30H21.924C21.58 30 21.292 29.884 21.06 29.652C20.828 29.419 20.712 29.131 20.712 28.788V21.6345C20.712 21.2915 20.596 21.004 20.364 20.772C20.131 20.539 19.843 20.4225 19.5 20.4225H16.5C16.157 20.4225 15.8695 20.539 15.6375 20.772C15.4045 21.004 15.288 21.2915 15.288 21.6345V28.7895C15.288 29.1325 15.172 29.42 14.94 29.652C14.708 29.884 14.4205 30 14.0775 30H9C8.598 30 8.2475 29.8505 7.9485 29.5515C7.6495 29.2525 7.5 28.902 7.5 28.5Z" fill="#67469A"/>
</g>
</svg>
